<svg width="18.000000" height="15.000000" viewBox="0 0 18 15" fill="none" xmlns="http://www.w3.org/2000/svg" xmlns:xlink="http://www.w3.org/1999/xlink">
	<desc>
			Created with Pixso.
	</desc>
	<defs/>
	<mask id="mask_0_1152" fill="white">
		<path id="Combined Shape" d="M0 0L18 0L18 3L0 3L0 0ZM0 6L18 6L18 9L0 9L0 6ZM18 12L0 12L0 15L18 15L18 12Z" clip-rule="evenodd" fill="" fill-opacity="1.000000" fill-rule="evenodd"/>
	</mask>
	<path id="Combined Shape" d="M0 0L18 0L18 3L0 3L0 0ZM0 6L18 6L18 9L0 9L0 6ZM18 12L0 12L0 15L18 15L18 12Z" clip-rule="evenodd" fill="#242A45" fill-opacity="1.000000" fill-rule="evenodd" mask="url(#mask_0_1152)"/>
	<path id="Combined Shape" d="" fill="#979797" fill-opacity="0.000000" fill-rule="nonzero"/>
</svg>
