<svg width="24.000000" height="24.000000" viewBox="0 0 24 24" fill="none" xmlns="http://www.w3.org/2000/svg" xmlns:xlink="http://www.w3.org/1999/xlink">
	<desc>
			Created with Pixso.
	</desc>
	<defs/>
	<path id="facebook" d="M22.675 0L1.32501 0C0.593018 0 0 0.593018 0 1.32495L0 22.676C0 23.407 0.593018 24 1.32501 24L12.82 24L12.82 14.7061L9.69202 14.7061L9.69202 11.084L12.82 11.084L12.82 8.41309C12.82 5.31299 14.713 3.625 17.479 3.625C18.804 3.625 19.942 3.72412 20.274 3.76807L20.274 7.00806L18.356 7.00903C16.852 7.00903 16.561 7.72412 16.561 8.77197L16.561 11.085L20.148 11.085L19.681 14.707L16.561 14.707L16.561 24L22.677 24C23.407 24 24 23.407 24 22.675L24 1.32495C24 0.593018 23.407 0 22.675 0Z" fill="#FFFFFF" fill-opacity="1.000000" fill-rule="evenodd"/>
</svg>
