<svg width="478.040894" height="423.000000" viewBox="0 0 478.041 423" fill="none" xmlns="http://www.w3.org/2000/svg" xmlns:xlink="http://www.w3.org/1999/xlink">
	<desc>
			Created with Pixso.
	</desc>
	<defs>
		<filter id="filter_0_979_dd" x="17.000000" y="133.000000" width="220.000000" height="275.000000" filterUnits="userSpaceOnUse" color-interpolation-filters="sRGB">
			<feFlood flood-opacity="0" result="BackgroundImageFix"/>
			<feColorMatrix in="SourceAlpha" type="matrix" values="0 0 0 0 0 0 0 0 0 0 0 0 0 0 0 0 0 0 127 0" result="hardAlpha"/>
			<feOffset dx="0" dy="5"/>
			<feGaussianBlur stdDeviation="3.33333"/>
			<feComposite in2="hardAlpha" operator="out" k2="-1" k3="1"/>
			<feColorMatrix type="matrix" values="0 0 0 0 0.28627 0 0 0 0 0.36471 0 0 0 0 0.81176 0 0 0 0.082 0"/>
			<feBlend mode="normal" in2="BackgroundImageFix" result="effect_dropShadow_1"/>
			<feBlend mode="normal" in="SourceGraphic" in2="effect_dropShadow_1" result="shape"/>
		</filter>
		<filter id="filter_0_996_dd" x="231.000000" y="128.000000" width="240.000000" height="295.000000" filterUnits="userSpaceOnUse" color-interpolation-filters="sRGB">
			<feFlood flood-opacity="0" result="BackgroundImageFix"/>
			<feColorMatrix in="SourceAlpha" type="matrix" values="0 0 0 0 0 0 0 0 0 0 0 0 0 0 0 0 0 0 127 0" result="hardAlpha"/>
			<feOffset dx="0" dy="5"/>
			<feGaussianBlur stdDeviation="3.33333"/>
			<feComposite in2="hardAlpha" operator="out" k2="-1" k3="1"/>
			<feColorMatrix type="matrix" values="0 0 0 0 0.28627 0 0 0 0 0.36471 0 0 0 0 0.81176 0 0 0 0.082 0"/>
			<feBlend mode="normal" in2="BackgroundImageFix" result="effect_dropShadow_1"/>
			<feBlend mode="normal" in="SourceGraphic" in2="effect_dropShadow_1" result="shape"/>
		</filter>
		<filter id="filter_0_997_dd" x="241.000000" y="133.000000" width="220.000000" height="275.000000" filterUnits="userSpaceOnUse" color-interpolation-filters="sRGB">
			<feFlood flood-opacity="0" result="BackgroundImageFix"/>
			<feColorMatrix in="SourceAlpha" type="matrix" values="0 0 0 0 0 0 0 0 0 0 0 0 0 0 0 0 0 0 127 0" result="hardAlpha"/>
			<feOffset dx="0" dy="5"/>
			<feGaussianBlur stdDeviation="3.33333"/>
			<feComposite in2="hardAlpha" operator="out" k2="-1" k3="1"/>
			<feColorMatrix type="matrix" values="0 0 0 0 0.28627 0 0 0 0 0.36471 0 0 0 0 0.81176 0 0 0 0.082 0"/>
			<feBlend mode="normal" in2="BackgroundImageFix" result="effect_dropShadow_1"/>
			<feBlend mode="normal" in="SourceGraphic" in2="effect_dropShadow_1" result="shape"/>
		</filter>
	</defs>
	<rect id="Mask" rx="8.000000" width="350.000000" height="346.000000" fill="#E8EAF6" fill-opacity="1.000000"/>
	<rect id="Mask" rx="8.000000" width="350.000000" height="346.000000" stroke="#979797" stroke-opacity="0" stroke-width="0.000000"/>
	<mask id="mask0_969" mask-type="alpha" maskUnits="userSpaceOnUse" x="0.000000" y="0.000000" width="350.000000" height="346.000000">
		<rect id="Mask" rx="8.000000" width="350.000000" height="346.000000" fill="#E8EAF6" fill-opacity="1.000000"/>
		<rect id="Mask" rx="8.000000" width="350.000000" height="346.000000" stroke="#979797" stroke-opacity="0" stroke-width="0.000000"/>
	</mask>
	<g mask="url(#mask0_969)">
		<rect id="Rectangle" x="-3.530457" y="0.197266" width="547.000000" height="59.000000" fill="#242A45" fill-opacity="1.000000"/>
		<rect id="Rectangle" x="-3.530457" y="0.197266" width="547.000000" height="59.000000" stroke="#979797" stroke-opacity="0" stroke-width="0.000000"/>
		<g opacity="0.244768">
			<circle id="Oval" cx="38.469543" cy="30.197266" r="16.000000" fill="#FFFFFF" fill-opacity="1.000000"/>
			<circle id="Oval" cx="38.469543" cy="30.197266" r="16.000000" stroke="#979797" stroke-opacity="0" stroke-width="0.000000"/>
		</g>
		<g opacity="0.750000">
			<rect id="Rectangle" x="69.469543" y="20.197266" rx="3.000000" width="120.000000" height="6.000000" fill="#FFFFFF" fill-opacity="1.000000"/>
			<rect id="Rectangle" x="69.469543" y="20.197266" rx="3.000000" width="120.000000" height="6.000000" stroke="#979797" stroke-opacity="0" stroke-width="0.000000"/>
		</g>
		<g opacity="0.250000">
			<rect id="Rectangle Copy 6" x="69.469543" y="34.197266" rx="3.000000" width="64.000000" height="6.000000" fill="#FFFFFF" fill-opacity="1.000000"/>
			<rect id="Rectangle Copy 6" x="69.469543" y="34.197266" rx="3.000000" width="64.000000" height="6.000000" stroke="#979797" stroke-opacity="0" stroke-width="0.000000"/>
		</g>
	</g>
	<g filter="url(#filter_0_979_dd)">
		<rect id="Rectangle" x="27.000000" y="138.000000" rx="8.000000" width="200.000000" height="255.000000" fill="#FFFFFF" fill-opacity="1.000000"/>
	</g>
	<rect id="Rectangle" x="27.000000" y="138.000000" rx="8.000000" width="200.000000" height="255.000000" stroke="#979797" stroke-opacity="0" stroke-width="0.000000"/>
	<g opacity="0.500000">
		<rect id="Rectangle" x="95.682617" y="173.000000" rx="3.000000" width="101.317368" height="6.000000" fill="#242A45" fill-opacity="1.000000"/>
		<rect id="Rectangle" x="95.682617" y="173.000000" rx="3.000000" width="101.317368" height="6.000000" stroke="#979797" stroke-opacity="0" stroke-width="0.000000"/>
	</g>
	<circle id="Oval" cx="66.000000" cy="183.000000" r="16.000000" fill="#5267DF" fill-opacity="1.000000"/>
	<circle id="Oval" cx="66.000000" cy="183.000000" r="16.000000" stroke="#979797" stroke-opacity="0" stroke-width="0.000000"/>
	<g opacity="0.250000">
		<rect id="Rectangle Copy 6" x="95.682617" y="187.000000" rx="3.000000" width="54.035927" height="6.000000" fill="#242A45" fill-opacity="1.000000"/>
		<rect id="Rectangle Copy 6" x="95.682617" y="187.000000" rx="3.000000" width="54.035927" height="6.000000" stroke="#979797" stroke-opacity="0" stroke-width="0.000000"/>
	</g>
	<circle id="Oval" cx="66.000000" cy="239.000000" r="16.000000" fill="#5267DF" fill-opacity="1.000000"/>
	<circle id="Oval" cx="66.000000" cy="239.000000" r="16.000000" stroke="#979797" stroke-opacity="0" stroke-width="0.000000"/>
	<g opacity="0.500000">
		<rect id="Rectangle" x="95.682617" y="229.000000" rx="3.000000" width="101.317368" height="6.000000" fill="#242A45" fill-opacity="1.000000"/>
		<rect id="Rectangle" x="95.682617" y="229.000000" rx="3.000000" width="101.317368" height="6.000000" stroke="#979797" stroke-opacity="0" stroke-width="0.000000"/>
	</g>
	<g opacity="0.250000">
		<rect id="Rectangle Copy 6" x="95.682617" y="243.000000" rx="3.000000" width="54.035927" height="6.000000" fill="#242A45" fill-opacity="1.000000"/>
		<rect id="Rectangle Copy 6" x="95.682617" y="243.000000" rx="3.000000" width="54.035927" height="6.000000" stroke="#979797" stroke-opacity="0" stroke-width="0.000000"/>
	</g>
	<circle id="Oval" cx="66.000000" cy="295.000000" r="16.000000" fill="#5267DF" fill-opacity="1.000000"/>
	<circle id="Oval" cx="66.000000" cy="295.000000" r="16.000000" stroke="#979797" stroke-opacity="0" stroke-width="0.000000"/>
	<g opacity="0.500000">
		<rect id="Rectangle" x="95.682617" y="285.000000" rx="3.000000" width="101.317368" height="6.000000" fill="#242A45" fill-opacity="1.000000"/>
		<rect id="Rectangle" x="95.682617" y="285.000000" rx="3.000000" width="101.317368" height="6.000000" stroke="#979797" stroke-opacity="0" stroke-width="0.000000"/>
	</g>
	<g opacity="0.250000">
		<rect id="Rectangle Copy 6" x="95.682617" y="299.000000" rx="3.000000" width="54.035927" height="6.000000" fill="#242A45" fill-opacity="1.000000"/>
		<rect id="Rectangle Copy 6" x="95.682617" y="299.000000" rx="3.000000" width="54.035927" height="6.000000" stroke="#979797" stroke-opacity="0" stroke-width="0.000000"/>
	</g>
	<circle id="Oval" cx="66.000000" cy="351.000000" r="16.000000" fill="#5267DF" fill-opacity="1.000000"/>
	<circle id="Oval" cx="66.000000" cy="351.000000" r="16.000000" stroke="#979797" stroke-opacity="0" stroke-width="0.000000"/>
	<g opacity="0.500000">
		<rect id="Rectangle" x="95.682617" y="341.000000" rx="3.000000" width="101.317368" height="6.000000" fill="#242A45" fill-opacity="1.000000"/>
		<rect id="Rectangle" x="95.682617" y="341.000000" rx="3.000000" width="101.317368" height="6.000000" stroke="#979797" stroke-opacity="0" stroke-width="0.000000"/>
	</g>
	<g opacity="0.250000">
		<rect id="Rectangle Copy 6" x="95.682617" y="355.000000" rx="3.000000" width="54.035927" height="6.000000" fill="#242A45" fill-opacity="1.000000"/>
		<rect id="Rectangle Copy 6" x="95.682617" y="355.000000" rx="3.000000" width="54.035927" height="6.000000" stroke="#979797" stroke-opacity="0" stroke-width="0.000000"/>
	</g>
	<g filter="url(#filter_0_996_dd)">
		<g filter="url(#filter_0_997_dd)">
			<rect id="Rectangle" x="251.000000" y="138.000000" rx="8.000000" width="200.000000" height="255.000000" fill="#FFFFFF" fill-opacity="1.000000"/>
		</g>
		<rect id="Rectangle" x="251.000000" y="138.000000" rx="8.000000" width="200.000000" height="255.000000" stroke="#979797" stroke-opacity="0" stroke-width="0.000000"/>
		<g opacity="0.500000">
			<rect id="Rectangle" x="319.682617" y="173.000000" rx="3.000000" width="101.317368" height="6.000000" fill="#242A45" fill-opacity="1.000000"/>
			<rect id="Rectangle" x="319.682617" y="173.000000" rx="3.000000" width="101.317368" height="6.000000" stroke="#979797" stroke-opacity="0" stroke-width="0.000000"/>
		</g>
		<circle id="Oval" cx="290.000000" cy="183.000000" r="16.000000" fill="#5267DF" fill-opacity="1.000000"/>
		<circle id="Oval" cx="290.000000" cy="183.000000" r="16.000000" stroke="#979797" stroke-opacity="0" stroke-width="0.000000"/>
		<g opacity="0.250000">
			<rect id="Rectangle Copy 6" x="319.682617" y="187.000000" rx="3.000000" width="54.035927" height="6.000000" fill="#242A45" fill-opacity="1.000000"/>
			<rect id="Rectangle Copy 6" x="319.682617" y="187.000000" rx="3.000000" width="54.035927" height="6.000000" stroke="#979797" stroke-opacity="0" stroke-width="0.000000"/>
		</g>
		<circle id="Oval" cx="290.000000" cy="239.000000" r="16.000000" fill="#FA5959" fill-opacity="1.000000"/>
		<circle id="Oval" cx="290.000000" cy="239.000000" r="16.000000" stroke="#979797" stroke-opacity="0" stroke-width="0.000000"/>
		<g opacity="0.500000">
			<rect id="Rectangle" x="319.682617" y="229.000000" rx="3.000000" width="101.317368" height="6.000000" fill="#242A45" fill-opacity="1.000000"/>
			<rect id="Rectangle" x="319.682617" y="229.000000" rx="3.000000" width="101.317368" height="6.000000" stroke="#979797" stroke-opacity="0" stroke-width="0.000000"/>
		</g>
		<g opacity="0.250000">
			<rect id="Rectangle Copy 6" x="319.682617" y="243.000000" rx="3.000000" width="54.035927" height="6.000000" fill="#242A45" fill-opacity="1.000000"/>
			<rect id="Rectangle Copy 6" x="319.682617" y="243.000000" rx="3.000000" width="54.035927" height="6.000000" stroke="#979797" stroke-opacity="0" stroke-width="0.000000"/>
		</g>
		<circle id="Oval" cx="290.000000" cy="295.000000" r="16.000000" fill="#5267DF" fill-opacity="1.000000"/>
		<circle id="Oval" cx="290.000000" cy="295.000000" r="16.000000" stroke="#979797" stroke-opacity="0" stroke-width="0.000000"/>
		<g opacity="0.500000">
			<rect id="Rectangle" x="319.682617" y="285.000000" rx="3.000000" width="101.317368" height="6.000000" fill="#242A45" fill-opacity="1.000000"/>
			<rect id="Rectangle" x="319.682617" y="285.000000" rx="3.000000" width="101.317368" height="6.000000" stroke="#979797" stroke-opacity="0" stroke-width="0.000000"/>
		</g>
		<g opacity="0.250000">
			<rect id="Rectangle Copy 6" x="319.682617" y="299.000000" rx="3.000000" width="54.035927" height="6.000000" fill="#242A45" fill-opacity="1.000000"/>
			<rect id="Rectangle Copy 6" x="319.682617" y="299.000000" rx="3.000000" width="54.035927" height="6.000000" stroke="#979797" stroke-opacity="0" stroke-width="0.000000"/>
		</g>
		<circle id="Oval" cx="290.000000" cy="351.000000" r="16.000000" fill="#5267DF" fill-opacity="1.000000"/>
		<circle id="Oval" cx="290.000000" cy="351.000000" r="16.000000" stroke="#979797" stroke-opacity="0" stroke-width="0.000000"/>
		<g opacity="0.500000">
			<rect id="Rectangle" x="319.682617" y="341.000000" rx="3.000000" width="101.317368" height="6.000000" fill="#242A45" fill-opacity="1.000000"/>
			<rect id="Rectangle" x="319.682617" y="341.000000" rx="3.000000" width="101.317368" height="6.000000" stroke="#979797" stroke-opacity="0" stroke-width="0.000000"/>
		</g>
		<g opacity="0.250000">
			<rect id="Rectangle Copy 6" x="319.682617" y="355.000000" rx="3.000000" width="54.035927" height="6.000000" fill="#242A45" fill-opacity="1.000000"/>
			<rect id="Rectangle Copy 6" x="319.682617" y="355.000000" rx="3.000000" width="54.035927" height="6.000000" stroke="#979797" stroke-opacity="0" stroke-width="0.000000"/>
		</g>
	</g>
	<rect id="Rectangle Copy" x="27.000000" y="85.000000" rx="8.000000" width="237.000000" height="34.000000" fill="#FFFFFF" fill-opacity="1.000000"/>
	<rect id="Rectangle Copy" x="27.000000" y="85.000000" rx="8.000000" width="237.000000" height="34.000000" stroke="#979797" stroke-opacity="0" stroke-width="0.000000"/>
	<circle id="Oval" cx="372.000000" cy="169.000000" r="67.000000" fill="#495DCF" fill-opacity="0.200120"/>
	<circle id="Oval" cx="372.000000" cy="169.000000" r="67.000000" stroke="#5267DF" stroke-opacity="1.000000" stroke-width="20.000000"/>
	<path id="Path 4" d="M411.957 224.071L411.929 224.071C407.969 220.111 407.969 213.889 411.929 209.929C415.889 205.969 422.111 205.969 426.071 209.929L426.071 209.957L411.957 224.071ZM475.043 258.929L475.071 258.929C479.031 262.889 479.031 269.111 475.071 273.071C471.111 277.031 464.889 277.031 460.929 273.071L460.929 273.043L475.043 258.929Z" fill="#D8D8D8" fill-opacity="0" fill-rule="nonzero"/>
	<path id="Path 4" d="M419 217L468 266" stroke="#5267DF" stroke-opacity="1.000000" stroke-width="20.000000" stroke-linejoin="round" stroke-linecap="round"/>
</svg>
