<svg width="536.000000" height="346.000000" viewBox="0 0 536 346" fill="none" xmlns="http://www.w3.org/2000/svg" xmlns:xlink="http://www.w3.org/1999/xlink">
	<desc>
			Created with Pixso.
	</desc>
	<defs/>
	<rect id="Mask" rx="8.000000" width="536.000000" height="346.000000" fill="#E8EAF6" fill-opacity="1.000000"/>
	<rect id="Mask" rx="8.000000" width="536.000000" height="346.000000" stroke="#979797" stroke-opacity="0" stroke-width="0.000000"/>
	<mask id="mask0_430" mask-type="alpha" maskUnits="userSpaceOnUse" x="0.000000" y="0.000000" width="536.000000" height="346.000000">
		<rect id="Mask" rx="8.000000" width="536.000000" height="346.000000" fill="#E8EAF6" fill-opacity="1.000000"/>
		<rect id="Mask" rx="8.000000" width="536.000000" height="346.000000" stroke="#979797" stroke-opacity="0" stroke-width="0.000000"/>
	</mask>
	<g mask="url(#mask0_430)">
		<rect id="Rectangle" x="-3.530457" y="0.197021" width="547.000000" height="59.000000" fill="#242A45" fill-opacity="1.000000"/>
		<rect id="Rectangle" x="-3.530457" y="0.197021" width="547.000000" height="59.000000" stroke="#979797" stroke-opacity="0" stroke-width="0.000000"/>
		<g opacity="0.244768">
			<circle id="Oval" cx="38.469543" cy="30.197021" r="16.000000" fill="#FFFFFF" fill-opacity="1.000000"/>
			<circle id="Oval" cx="38.469543" cy="30.197021" r="16.000000" stroke="#979797" stroke-opacity="0" stroke-width="0.000000"/>
		</g>
		<g opacity="0.104399">
			<circle id="Oval Copy" cx="499.469604" cy="30.197021" r="16.000000" fill="#FFFFFF" fill-opacity="1.000000"/>
			<circle id="Oval Copy" cx="499.469604" cy="30.197021" r="16.000000" stroke="#979797" stroke-opacity="0" stroke-width="0.000000"/>
		</g>
		<g opacity="0.750000">
			<rect id="Rectangle" x="69.469543" y="20.197021" rx="3.000000" width="120.000000" height="6.000000" fill="#FFFFFF" fill-opacity="1.000000"/>
			<rect id="Rectangle" x="69.469543" y="20.197021" rx="3.000000" width="120.000000" height="6.000000" stroke="#979797" stroke-opacity="0" stroke-width="0.000000"/>
		</g>
		<g opacity="0.250000">
			<rect id="Rectangle Copy 6" x="69.469543" y="34.197021" rx="3.000000" width="64.000000" height="6.000000" fill="#FFFFFF" fill-opacity="1.000000"/>
			<rect id="Rectangle Copy 6" x="69.469543" y="34.197021" rx="3.000000" width="64.000000" height="6.000000" stroke="#979797" stroke-opacity="0" stroke-width="0.000000"/>
		</g>
	</g>
	<g mask="url(#mask0_430)">
		<rect id="Rectangle" x="57.000000" y="93.000000" rx="8.000000" width="261.000000" height="316.000000" fill="#FFFFFF" fill-opacity="1.000000"/>
		<rect id="Rectangle" x="57.000000" y="93.000000" rx="8.000000" width="261.000000" height="316.000000" stroke="#979797" stroke-opacity="0" stroke-width="0.000000"/>
		<rect id="Rectangle Copy 7" x="352.000000" y="93.000000" rx="8.000000" width="128.000000" height="316.000000" fill="#FFFFFF" fill-opacity="1.000000"/>
		<rect id="Rectangle Copy 7" x="352.000000" y="93.000000" rx="8.000000" width="128.000000" height="316.000000" stroke="#979797" stroke-opacity="0" stroke-width="0.000000"/>
		<g opacity="0.500000">
			<rect id="Rectangle" x="135.469604" y="131.197021" rx="3.000000" width="120.000000" height="6.000000" fill="#242A45" fill-opacity="1.000000"/>
			<rect id="Rectangle" x="135.469604" y="131.197021" rx="3.000000" width="120.000000" height="6.000000" stroke="#979797" stroke-opacity="0" stroke-width="0.000000"/>
		</g>
	</g>
	<circle id="Oval" cx="104.469543" cy="141.197021" r="16.000000" fill="#F98E5D" fill-opacity="1.000000"/>
	<circle id="Oval" cx="104.469543" cy="141.197021" r="16.000000" stroke="#979797" stroke-opacity="0" stroke-width="0.000000"/>
	<g opacity="0.250000">
		<rect id="Rectangle" x="372.469604" y="115.197021" rx="3.000000" width="88.000000" height="6.000000" fill="#242A45" fill-opacity="1.000000"/>
		<rect id="Rectangle" x="372.469604" y="115.197021" rx="3.000000" width="88.000000" height="6.000000" stroke="#979797" stroke-opacity="0" stroke-width="0.000000"/>
	</g>
	<g opacity="0.250000">
		<rect id="Rectangle Copy 8" x="372.469604" y="135.197021" rx="3.000000" width="88.000000" height="6.000000" fill="#242A45" fill-opacity="1.000000"/>
		<rect id="Rectangle Copy 8" x="372.469604" y="135.197021" rx="3.000000" width="88.000000" height="6.000000" stroke="#979797" stroke-opacity="0" stroke-width="0.000000"/>
	</g>
	<g opacity="0.250000">
		<rect id="Rectangle Copy 9" x="372.469604" y="155.197021" rx="3.000000" width="88.000000" height="6.000000" fill="#242A45" fill-opacity="1.000000"/>
		<rect id="Rectangle Copy 9" x="372.469604" y="155.197021" rx="3.000000" width="88.000000" height="6.000000" stroke="#979797" stroke-opacity="0" stroke-width="0.000000"/>
	</g>
	<g opacity="0.250000">
		<rect id="Rectangle Copy 10" x="372.469604" y="175.197021" rx="3.000000" width="88.000000" height="6.000000" fill="#242A45" fill-opacity="1.000000"/>
		<rect id="Rectangle Copy 10" x="372.469604" y="175.197021" rx="3.000000" width="88.000000" height="6.000000" stroke="#979797" stroke-opacity="0" stroke-width="0.000000"/>
	</g>
	<g opacity="0.250000">
		<rect id="Rectangle Copy 11" x="372.469604" y="209.197021" rx="3.000000" width="88.000000" height="6.000000" fill="#242A45" fill-opacity="1.000000"/>
		<rect id="Rectangle Copy 11" x="372.469604" y="209.197021" rx="3.000000" width="88.000000" height="6.000000" stroke="#979797" stroke-opacity="0" stroke-width="0.000000"/>
	</g>
	<g opacity="0.250000">
		<rect id="Rectangle Copy 12" x="372.469604" y="229.197021" rx="3.000000" width="88.000000" height="6.000000" fill="#242A45" fill-opacity="1.000000"/>
		<rect id="Rectangle Copy 12" x="372.469604" y="229.197021" rx="3.000000" width="88.000000" height="6.000000" stroke="#979797" stroke-opacity="0" stroke-width="0.000000"/>
	</g>
	<g opacity="0.250000">
		<rect id="Rectangle Copy 13" x="372.469604" y="249.197021" rx="3.000000" width="88.000000" height="6.000000" fill="#242A45" fill-opacity="1.000000"/>
		<rect id="Rectangle Copy 13" x="372.469604" y="249.197021" rx="3.000000" width="88.000000" height="6.000000" stroke="#979797" stroke-opacity="0" stroke-width="0.000000"/>
	</g>
	<g opacity="0.250000">
		<rect id="Rectangle Copy 6" x="135.469604" y="145.197021" rx="3.000000" width="64.000000" height="6.000000" fill="#242A45" fill-opacity="1.000000"/>
		<rect id="Rectangle Copy 6" x="135.469604" y="145.197021" rx="3.000000" width="64.000000" height="6.000000" stroke="#979797" stroke-opacity="0" stroke-width="0.000000"/>
	</g>
	<circle id="Oval" cx="104.469543" cy="197.197021" r="16.000000" fill="#6AC6D6" fill-opacity="1.000000"/>
	<circle id="Oval" cx="104.469543" cy="197.197021" r="16.000000" stroke="#979797" stroke-opacity="0" stroke-width="0.000000"/>
	<g opacity="0.500000">
		<rect id="Rectangle" x="135.469604" y="187.197021" rx="3.000000" width="120.000000" height="6.000000" fill="#242A45" fill-opacity="1.000000"/>
		<rect id="Rectangle" x="135.469604" y="187.197021" rx="3.000000" width="120.000000" height="6.000000" stroke="#979797" stroke-opacity="0" stroke-width="0.000000"/>
	</g>
	<g opacity="0.250000">
		<rect id="Rectangle Copy 6" x="135.469604" y="201.197021" rx="3.000000" width="64.000000" height="6.000000" fill="#242A45" fill-opacity="1.000000"/>
		<rect id="Rectangle Copy 6" x="135.469604" y="201.197021" rx="3.000000" width="64.000000" height="6.000000" stroke="#979797" stroke-opacity="0" stroke-width="0.000000"/>
	</g>
	<circle id="Oval" cx="104.469543" cy="253.197021" r="16.000000" fill="#A47ED4" fill-opacity="1.000000"/>
	<circle id="Oval" cx="104.469543" cy="253.197021" r="16.000000" stroke="#979797" stroke-opacity="0" stroke-width="0.000000"/>
	<g opacity="0.500000">
		<rect id="Rectangle" x="135.469604" y="243.197021" rx="3.000000" width="120.000000" height="6.000000" fill="#242A45" fill-opacity="1.000000"/>
		<rect id="Rectangle" x="135.469604" y="243.197021" rx="3.000000" width="120.000000" height="6.000000" stroke="#979797" stroke-opacity="0" stroke-width="0.000000"/>
	</g>
	<g opacity="0.250000">
		<rect id="Rectangle Copy 6" x="135.469604" y="257.197021" rx="3.000000" width="64.000000" height="6.000000" fill="#242A45" fill-opacity="1.000000"/>
		<rect id="Rectangle Copy 6" x="135.469604" y="257.197021" rx="3.000000" width="64.000000" height="6.000000" stroke="#979797" stroke-opacity="0" stroke-width="0.000000"/>
	</g>
	<circle id="Oval" cx="104.469543" cy="309.197021" r="16.000000" fill="#EC7878" fill-opacity="1.000000"/>
	<circle id="Oval" cx="104.469543" cy="309.197021" r="16.000000" stroke="#979797" stroke-opacity="0" stroke-width="0.000000"/>
	<g opacity="0.500000">
		<rect id="Rectangle" x="135.469604" y="299.197021" rx="3.000000" width="120.000000" height="6.000000" fill="#242A45" fill-opacity="1.000000"/>
		<rect id="Rectangle" x="135.469604" y="299.197021" rx="3.000000" width="120.000000" height="6.000000" stroke="#979797" stroke-opacity="0" stroke-width="0.000000"/>
	</g>
	<g opacity="0.250000">
		<rect id="Rectangle Copy 6" x="135.469604" y="313.197021" rx="3.000000" width="64.000000" height="6.000000" fill="#242A45" fill-opacity="1.000000"/>
		<rect id="Rectangle Copy 6" x="135.469604" y="313.197021" rx="3.000000" width="64.000000" height="6.000000" stroke="#979797" stroke-opacity="0" stroke-width="0.000000"/>
	</g>
</svg>
