<svg width="147.743164" height="25.000000" viewBox="0 0 147.743 25" fill="none" xmlns="http://www.w3.org/2000/svg" xmlns:xlink="http://www.w3.org/1999/xlink">
	<desc>
			Created with Pixso.
	</desc>
	<defs/>
	<path id="BOOKMARK" d="M42.2266 6.29867L37 6.29867L37 19.664L42.4133 19.664C43.2222 19.664 43.9595 19.5116 44.6252 19.2067C45.291 18.9018 45.8201 18.4662 46.2119 17.9C46.604 17.3338 46.8 16.6836 46.8 15.9493C46.8 15.1902 46.5947 14.54 46.1841 13.9987C45.7734 13.4573 45.2195 13.0622 44.5227 12.8133L44.5227 12.664C45.0579 12.4027 45.4902 12.0262 45.8201 11.5347C46.1497 11.0431 46.3147 10.4613 46.3147 9.78933C46.3147 9.15466 46.1343 8.56978 45.7734 8.03467C45.4124 7.49955 44.9177 7.07645 44.2893 6.76533C43.6609 6.45422 42.9734 6.29867 42.2266 6.29867ZM42.04 11.7493C42.5876 11.7493 43.0261 11.5969 43.356 11.292C43.6858 10.9871 43.8506 10.6044 43.8506 10.144C43.8506 9.696 43.6919 9.31956 43.3748 9.01467C43.0574 8.70978 42.6375 8.55733 42.1147 8.55733L39.52 8.55733L39.52 11.7493L42.04 11.7493ZM42.3201 17.368C42.9297 17.368 43.4058 17.2093 43.748 16.892C44.0903 16.5747 44.2612 16.1609 44.2612 15.6507C44.2612 15.1404 44.0872 14.7236 43.7388 14.4C43.3901 14.0764 42.8923 13.9147 42.2454 13.9147L39.52 13.9147L39.52 17.368L42.3201 17.368ZM51.6907 19.0387C52.7546 19.6547 53.9399 19.9627 55.2466 19.9627C56.5532 19.9627 57.7388 19.6547 58.8027 19.0387C59.8667 18.4227 60.7036 17.5796 61.3132 16.5093C61.9231 15.4391 62.228 14.2631 62.228 12.9813C62.228 11.6995 61.9231 10.5236 61.3132 9.45333C60.7036 8.38311 59.8667 7.54 58.8027 6.924C57.7388 6.308 56.5532 6 55.2466 6C53.9399 6 52.7546 6.308 51.6907 6.924C50.6267 7.54 49.7898 8.38311 49.1799 9.45333C48.5703 10.5236 48.2654 11.6995 48.2654 12.9813C48.2654 14.2631 48.5703 15.4391 49.1799 16.5093C49.7898 17.5796 50.6267 18.4227 51.6907 19.0387ZM55.2466 17.5733C56.0681 17.5733 56.8208 17.3804 57.5054 16.9947C58.1897 16.6089 58.728 16.0676 59.1201 15.3707C59.512 14.6738 59.708 13.8773 59.708 12.9813C59.708 12.0853 59.512 11.2889 59.1201 10.592C58.728 9.89511 58.1897 9.35378 57.5054 8.968C56.8208 8.58222 56.0681 8.38933 55.2466 8.38933C54.4253 8.38933 53.6755 8.58222 52.9973 8.968C52.3191 9.35378 51.7839 9.89511 51.3921 10.592C51 11.2889 50.804 12.0853 50.804 12.9813C50.804 13.8773 51 14.6738 51.3921 15.3707C51.7839 16.0676 52.3191 16.6089 52.9973 16.9947C53.6755 17.3804 54.4253 17.5733 55.2466 17.5733ZM67.0439 19.0387C68.1079 19.6547 69.2932 19.9627 70.6001 19.9627C71.9067 19.9627 73.0918 19.6547 74.1558 19.0387C75.2202 18.4227 76.0566 17.5796 76.6665 16.5093C77.2764 15.4391 77.5815 14.2631 77.5815 12.9813C77.5815 11.6995 77.2764 10.5236 76.6665 9.45333C76.0566 8.38311 75.2202 7.54 74.1558 6.924C73.0918 6.308 71.9067 6 70.6001 6C69.2932 6 68.1079 6.308 67.0439 6.924C65.98 7.54 65.1431 8.38311 64.5334 9.45333C63.9236 10.5236 63.6187 11.6995 63.6187 12.9813C63.6187 14.2631 63.9236 15.4391 64.5334 16.5093C65.1431 17.5796 65.98 18.4227 67.0439 19.0387ZM70.6001 17.5733C71.4214 17.5733 72.1743 17.3804 72.8589 16.9947C73.543 16.6089 74.0815 16.0676 74.4731 15.3707C74.8652 14.6738 75.0615 13.8773 75.0615 12.9813C75.0615 12.0853 74.8652 11.2889 74.4731 10.592C74.0815 9.89511 73.543 9.35378 72.8589 8.968C72.1743 8.58222 71.4214 8.38933 70.6001 8.38933C69.7786 8.38933 69.0288 8.58222 68.3506 8.968C67.6724 9.35378 67.1375 9.89511 66.7454 10.592C66.3533 11.2889 66.1572 12.0853 66.1572 12.9813C66.1572 13.8773 66.3533 14.6738 66.7454 15.3707C67.1375 16.0676 67.6724 16.6089 68.3506 16.9947C69.0288 17.3804 69.7786 17.5733 70.6001 17.5733ZM82.3506 6.29867L79.8306 6.29867L79.8306 19.664L82.3506 19.664L82.3506 15.744L83.8628 13.9707L87.8574 19.664L90.9375 19.664L90.9375 19.5147L85.5986 11.9733L90.4331 6.448L90.4331 6.29867L87.3906 6.29867L82.5 12.0293L82.3506 12.0293L82.3506 6.29867ZM97.0259 6L93.7778 6L93.7778 19.3653L96.2603 19.3653L96.2603 12.776L96.1113 10.5547L96.2603 10.5547L99.6763 19.3653L101.636 19.3653L105.034 10.5547L105.183 10.5547L105.034 12.776L105.034 19.3653L107.535 19.3653L107.535 6L104.269 6L100.722 15.3893L100.572 15.3893L97.0259 6ZM117.472 6L114.579 6L109.576 19.3653L112.357 19.3653L113.478 16.1733L118.592 16.1733L119.712 19.3653L122.493 19.3653L117.472 6ZM117.771 13.8587L116.595 10.4987L116.109 8.89333L115.96 8.89333L115.475 10.4987L114.28 13.8587L117.771 13.8587ZM129.425 6L124.553 6L124.553 19.3653L127.073 19.3653L127.073 14.344L128.249 14.344L131.702 19.3653L134.596 19.3653L134.596 19.216L131.012 14.0827L131.03 13.952C131.852 13.6533 132.533 13.1711 133.074 12.5053C133.616 11.8396 133.886 11.0773 133.886 10.2187C133.886 9.40977 133.7 8.68489 133.326 8.044C132.953 7.40311 132.427 6.90222 131.749 6.54133C131.071 6.18044 130.296 6 129.425 6ZM129.406 12.0293C129.979 12.0293 130.445 11.8551 130.806 11.5067C131.167 11.1582 131.348 10.7164 131.348 10.1813C131.348 9.67111 131.176 9.23556 130.834 8.87467C130.492 8.51377 130.028 8.33333 129.443 8.33333L127.073 8.33333L127.073 12.0293L129.406 12.0293ZM139.156 6L136.636 6L136.636 19.3653L139.156 19.3653L139.156 15.4453L140.668 13.672L144.663 19.3653L147.743 19.3653L147.743 19.216L142.404 11.6747L147.239 6.14933L147.239 6L144.196 6L139.306 11.7307L139.156 11.7307L139.156 6Z" clip-rule="evenodd" fill="#242A45" fill-opacity="1.000000" fill-rule="evenodd"/>
	<circle id="Oval" cx="12.500000" cy="12.500000" r="12.500000" fill="#5267DF" fill-opacity="1.000000"/>
	<circle id="Oval" cx="12.500000" cy="12.500000" r="12.500000" stroke="#979797" stroke-opacity="0" stroke-width="0.000000"/>
	<path id="Path 2" d="M11 7C9.89551 7 9 7.89543 9 9L9 19L12.5396 15.5609L16.0789 19L16.0789 9C16.0789 7.89543 15.1836 7 14.0789 7L11 7Z" fill="#FFFFFF" fill-opacity="1.000000" fill-rule="evenodd"/>
	<path id="Path 2" d="M9 19L12.5396 15.5609L16.0789 19L16.0789 9C16.0789 7.89543 15.1836 7 14.0789 7L11 7C9.89551 7 9 7.89543 9 9L9 19Z" stroke="#979797" stroke-opacity="0" stroke-width="0.000000"/>
</svg>
