<svg width="148.000000" height="25.000000" viewBox="0 0 148 25" fill="none" xmlns="http://www.w3.org/2000/svg" xmlns:xlink="http://www.w3.org/1999/xlink">
	<desc>
			Created with Pixso.
	</desc>
	<defs/>
	<path id="BOOKMARK" d="M42.2267 6.29858L37 6.29858L37 19.6641L42.4133 19.6641C43.2222 19.6641 43.9596 19.5115 44.6253 19.2068C45.2911 18.9019 45.82 18.4663 46.212 17.8999C46.604 17.3337 46.8 16.6836 46.8 15.9492C46.8 15.1902 46.5947 14.54 46.184 13.9988C45.7733 13.4573 45.2196 13.0623 44.5227 12.8132L44.5227 12.6641C45.0578 12.4026 45.4902 12.0261 45.82 11.5347C46.1498 11.0432 46.3147 10.4614 46.3147 9.78931C46.3147 9.15479 46.1342 8.56982 45.7733 8.03467C45.4124 7.49951 44.9178 7.07642 44.2893 6.76538C43.6609 6.4541 42.9733 6.29858 42.2267 6.29858ZM42.04 11.7493C42.5876 11.7493 43.0262 11.5969 43.356 11.292C43.6858 10.9871 43.8507 10.6045 43.8507 10.144C43.8507 9.69604 43.692 9.31958 43.3747 9.01465C43.0573 8.70972 42.6373 8.55737 42.1147 8.55737L39.52 8.55737L39.52 11.7493L42.04 11.7493ZM42.32 17.3679C42.9298 17.3679 43.4058 17.2092 43.748 16.8921C44.0902 16.5747 44.2613 16.1609 44.2613 15.6506C44.2613 15.1404 44.0871 14.7236 43.7387 14.3999C43.3902 14.0764 42.8924 13.9146 42.2453 13.9146L39.52 13.9146L39.52 17.3679L42.32 17.3679ZM51.6907 19.0386C52.7547 19.6548 53.94 19.9626 55.2467 19.9626C56.5533 19.9626 57.7387 19.6548 58.8027 19.0386C59.8667 18.4226 60.7036 17.5796 61.3133 16.5093C61.9231 15.4392 62.228 14.2632 62.228 12.9814C62.228 11.6995 61.9231 10.5237 61.3133 9.45337C60.7036 8.38306 59.8667 7.54004 58.8027 6.92407C57.7387 6.30811 56.5533 6 55.2467 6C53.94 6 52.7547 6.30811 51.6907 6.92407C50.6267 7.54004 49.7898 8.38306 49.18 9.45337C48.5702 10.5237 48.2653 11.6995 48.2653 12.9814C48.2653 14.2632 48.5702 15.4392 49.18 16.5093C49.7898 17.5796 50.6267 18.4226 51.6907 19.0386ZM55.2467 17.5732C56.068 17.5732 56.8209 17.3804 57.5053 16.9946C58.1898 16.6089 58.728 16.0676 59.12 15.3706C59.512 14.6738 59.708 13.8774 59.708 12.9814C59.708 12.0854 59.512 11.2888 59.12 10.592C58.728 9.89502 58.1898 9.35376 57.5053 8.96802C56.8209 8.58228 56.068 8.3894 55.2467 8.3894C54.4253 8.3894 53.6756 8.58228 52.9973 8.96802C52.3191 9.35376 51.784 9.89502 51.392 10.592C51 11.2888 50.804 12.0854 50.804 12.9814C50.804 13.8774 51 14.6738 51.392 15.3706C51.784 16.0676 52.3191 16.6089 52.9973 16.9946C53.6756 17.3804 54.4253 17.5732 55.2467 17.5732ZM67.044 19.0386C68.108 19.6548 69.2933 19.9626 70.6 19.9626C71.9067 19.9626 73.092 19.6548 74.156 19.0386C75.22 18.4226 76.0569 17.5796 76.6667 16.5093C77.2765 15.4392 77.5813 14.2632 77.5813 12.9814C77.5813 11.6995 77.2765 10.5237 76.6667 9.45337C76.0569 8.38306 75.22 7.54004 74.156 6.92407C73.092 6.30811 71.9067 6 70.6 6C69.2933 6 68.108 6.30811 67.044 6.92407C65.98 7.54004 65.1431 8.38306 64.5333 9.45337C63.9236 10.5237 63.6187 11.6995 63.6187 12.9814C63.6187 14.2632 63.9236 15.4392 64.5333 16.5093C65.1431 17.5796 65.98 18.4226 67.044 19.0386ZM70.6 17.5732C71.4213 17.5732 72.1742 17.3804 72.8587 16.9946C73.5431 16.6089 74.0813 16.0676 74.4733 15.3706C74.8653 14.6738 75.0613 13.8774 75.0613 12.9814C75.0613 12.0854 74.8653 11.2888 74.4733 10.592C74.0813 9.89502 73.5431 9.35376 72.8587 8.96802C72.1742 8.58228 71.4213 8.3894 70.6 8.3894C69.7787 8.3894 69.0289 8.58228 68.3507 8.96802C67.6724 9.35376 67.1373 9.89502 66.7453 10.592C66.3533 11.2888 66.1573 12.0854 66.1573 12.9814C66.1573 13.8774 66.3533 14.6738 66.7453 15.3706C67.1373 16.0676 67.6724 16.6089 68.3507 16.9946C69.0289 17.3804 69.7787 17.5732 70.6 17.5732ZM82.3507 6.29858L79.8307 6.29858L79.8307 19.6641L82.3507 19.6641L82.3507 15.7439L83.8627 13.9707L87.8573 19.6641L90.9373 19.6641L90.9373 19.5146L85.5987 11.9734L90.4333 6.448L90.4333 6.29858L87.3907 6.29858L82.5 12.0293L82.3507 12.0293L82.3507 6.29858ZM97.0258 6L93.7778 6L93.7778 19.3652L96.2604 19.3652L96.2604 12.7759L96.1111 10.5547L96.2604 10.5547L99.6764 19.3652L101.636 19.3652L105.034 10.5547L105.183 10.5547L105.034 12.7759L105.034 19.3652L107.535 19.3652L107.535 6L104.268 6L100.722 15.3894L100.572 15.3894L97.0258 6ZM117.472 6L114.579 6L109.576 19.3652L112.357 19.3652L113.477 16.1733L118.592 16.1733L119.712 19.3652L122.493 19.3652L117.472 6ZM117.771 13.8586L116.595 10.4988L116.109 8.89331L115.96 8.89331L115.475 10.4988L114.28 13.8586L117.771 13.8586ZM129.425 6L124.553 6L124.553 19.3652L127.073 19.3652L127.073 14.344L128.249 14.344L131.702 19.3652L134.596 19.3652L134.596 19.2161L131.012 14.0828L131.03 13.9519C131.852 13.6533 132.533 13.1711 133.074 12.5054C133.616 11.8396 133.886 11.0774 133.886 10.2188C133.886 9.40967 133.7 8.68481 133.326 8.04395C132.953 7.40308 132.427 6.90234 131.749 6.54126C131.071 6.18042 130.296 6 129.425 6ZM129.406 12.0293C129.979 12.0293 130.445 11.8552 130.806 11.5066C131.167 11.1582 131.348 10.7166 131.348 10.1814C131.348 9.67114 131.176 9.2356 130.834 8.87476C130.492 8.51367 130.028 8.33325 129.444 8.33325L127.073 8.33325L127.073 12.0293L129.406 12.0293ZM139.156 6L136.636 6L136.636 19.3652L139.156 19.3652L139.156 15.4453L140.668 13.6721L144.663 19.3652L147.743 19.3652L147.743 19.2161L142.404 11.6746L147.239 6.14941L147.239 6L144.196 6L139.306 11.7307L139.156 11.7307L139.156 6Z" clip-rule="evenodd" fill="#FFFFFF" fill-opacity="1.000000" fill-rule="evenodd"/>
	<circle id="Oval" cx="12.500000" cy="12.500000" r="12.500000" fill="#5267DF" fill-opacity="1.000000"/>
	<circle id="Oval" cx="12.500000" cy="12.500000" r="12.500000" stroke="#979797" stroke-opacity="0" stroke-width="0.000000"/>
	<path id="Path 2" d="M11 7C9.89543 7 9 7.89551 9 9L9 19L12.5395 15.5608L16.0789 19L16.0789 9C16.0789 7.89551 15.1835 7 14.0789 7L11 7Z" fill="#FFFFFF" fill-opacity="1.000000" fill-rule="evenodd"/>
	<path id="Path 2" d="M9 19L12.5395 15.5608L16.0789 19L16.0789 9C16.0789 7.89551 15.1835 7 14.0789 7L11 7C9.89543 7 9 7.89551 9 9L9 19Z" stroke="#979797" stroke-opacity="0" stroke-width="0.000000"/>
</svg>
