<svg width="24.000000" height="19.504028" viewBox="0 0 24 19.504" fill="none" xmlns="http://www.w3.org/2000/svg" xmlns:xlink="http://www.w3.org/1999/xlink">
	<desc>
			Created with Pixso.
	</desc>
	<defs/>
	<path id="twitter-logo" d="M24 2.30902C23.1172 2.70099 22.168 2.96503 21.1719 3.08398C22.189 2.47498 22.9702 1.51001 23.3369 0.359985C22.3862 0.924011 21.332 1.33398 20.21 1.55499C19.313 0.598022 18.0322 0 16.6162 0C13.437 0 11.1011 2.966 11.8188 6.04498C7.72803 5.84003 4.1001 3.88 1.6709 0.901001C0.380859 3.11401 1.00195 6.00897 3.19385 7.47498C2.38818 7.44897 1.62793 7.22803 0.964844 6.85901C0.911133 9.14001 2.5459 11.274 4.91406 11.749C4.22119 11.937 3.46191 11.981 2.68994 11.833C3.31592 13.789 5.13379 15.212 7.29004 15.252C5.22021 16.875 2.61182 17.6 0 17.292C2.1792 18.689 4.76807 19.504 7.54785 19.504C16.6899 19.504 21.855 11.783 21.543 4.85797C22.5049 4.16302 23.3398 3.29602 24 2.30902Z" fill="#FFFFFF" fill-opacity="1.000000" fill-rule="evenodd"/>
</svg>
