<svg width="24.000000" height="19.503906" viewBox="0 0 24 19.5039" fill="none" xmlns="http://www.w3.org/2000/svg" xmlns:xlink="http://www.w3.org/1999/xlink">
	<desc>
			Created with Pixso.
	</desc>
	<defs/>
	<path id="twitter" d="M24 2.30908C23.117 2.70093 22.168 2.96509 21.172 3.08398C22.189 2.4751 22.97 1.51001 23.337 0.360107C22.386 0.924072 21.332 1.33398 20.21 1.55493C19.313 0.5979 18.032 0 16.616 0C13.437 0 11.101 2.96606 11.819 6.04492C7.72803 5.84009 4.09998 3.87988 1.67102 0.900879C0.380981 3.11401 1.00201 6.00903 3.19397 7.4751C2.388 7.44897 1.62799 7.22803 0.965027 6.85889C0.911011 9.13989 2.54602 11.2739 4.914 11.749C4.22101 11.937 3.46198 11.981 2.69 11.833C3.31598 13.7891 5.13397 15.2119 7.28998 15.252C5.21997 16.875 2.612 17.6001 0 17.292C2.17902 18.689 4.76801 19.5039 7.54797 19.5039C16.69 19.5039 21.855 11.783 21.543 4.85791C22.505 4.16309 23.34 3.2959 24 2.30908Z" fill="#FFFFFF" fill-opacity="1.000000" fill-rule="evenodd"/>
</svg>
